<svg xmlns="http://www.w3.org/2000/svg" viewBox="0 0 372.01 371.64"><g style="isolation:isolate"><g style="mix-blend-mode:screen"><path d="M91.08 62.1L72.77 38.26a185.87 185.87 0 0 1 42-24.32l11.52 27.77A155.79 155.79 0 0 0 91.08 62.1zm141.83-25.04a155.69 155.69 0 0 0-40.1-7L194.1 0a185.8 185.8 0 0 1 47.84 8.38z" fill="#1f435e"/><path d="M54.46 102L29.12 85.86a186.86 186.86 0 0 1 31.22-37.17l20.32 22.16A156.78 156.78 0 0 0 54.46 102zm-20.72 50l-29.36-6.43A185 185 0 0 1 21 99.91l26.65 13.9A154.86 154.86 0 0 0 33.74 152zm304.53 0a154.89 154.89 0 0 0-13.92-38.23L351 99.91a184.9 184.9 0 0 1 16.62 45.66z" fill="#00b187"/><path d="M370.43 210.08l-29.81-3.88a157.58 157.58 0 0 0 0-40.75l29.81-3.88a187.57 187.57 0 0 1 0 48.52z" fill="#1f435e"/><path d="M317.55 102a156.83 156.83 0 0 0-26.2-31.18l20.32-22.16a186.87 186.87 0 0 1 31.22 37.17zm-36.63-39.9a155.8 155.8 0 0 0-35.24-20.38l11.52-27.78a185.86 185.86 0 0 1 42 24.32zM139.1 37.06l-9-28.67A185.8 185.8 0 0 1 177.9 0l1.29 30a155.71 155.71 0 0 0-40.09 7.06zm118.1 320.63l-11.52-27.77a155.8 155.8 0 0 0 35.24-20.39l18.32 23.84a185.82 185.82 0 0 1-42.04 24.32zm-63.1 13.95l-1.29-30a155.76 155.76 0 0 0 40.1-7l9 28.67a185.77 185.77 0 0 1-47.81 8.33z" fill="#00b187"/><path d="M351 271.73l-26.65-13.9a154.85 154.85 0 0 0 13.92-38.23l29.36 6.48A184.92 184.92 0 0 1 351 271.73z" fill="#1f435e"/><path d="M311.66 322.95l-20.32-22.16a156.81 156.81 0 0 0 26.2-31.19l25.34 16.18a186.87 186.87 0 0 1-31.22 37.17z" fill="#00b187"/><path d="M21 271.73a185 185 0 0 1-16.62-45.66l29.36-6.48a154.89 154.89 0 0 0 13.92 38.24zm39.34 51.22a186.87 186.87 0 0 1-31.22-37.17l25.34-16.18a156.79 156.79 0 0 0 26.2 31.19z" fill="#1f435e"/><path d="M1.58 210.08a187.54 187.54 0 0 1 0-48.52l29.81 3.89a157.51 157.51 0 0 0 0 40.75zM114.8 357.69a185.85 185.85 0 0 1-42-24.32l18.32-23.84a155.79 155.79 0 0 0 35.24 20.39z" fill="#00b187"/><path d="M177.9 371.64a185.78 185.78 0 0 1-47.84-8.38l9-28.67a155.76 155.76 0 0 0 40.1 7z" fill="#1f435e"/></g></g></svg>