<svg xmlns="http://www.w3.org/2000/svg" viewBox="0 0 401.75 400.85"><path d="M345.19 346.16l-3.94-3.79c3.35-3.49 6.62-7.15 9.71-10.89s6.08-7.62 8.89-11.57l4.45 3.17c-2.89 4.06-6 8.06-9.13 11.89s-6.54 7.61-9.98 11.19zm-82.48 52.26l-1.71-5.18c1.56-.52 3.15-1.08 4.72-1.65s3.12-1.16 4.68-1.77l2 5.09c-1.6.63-3.21 1.24-4.8 1.82s-3.28 1.16-4.89 1.69zm-122.51 2.44a204.62 204.62 0 0 1-40.47-16.7l2.61-4.8a199.22 199.22 0 0 0 39.39 16.26zM30.07 322q-1.4-2-2.76-4t-2.66-4.1l4.62-2.92q1.27 2 2.59 4t2.68 3.92zM8.44 282.53c-1.66-4-3.22-8.16-4.62-12.29S1.13 261.89 0 257.68l5.28-1.42c1.1 4.09 2.35 8.2 3.72 12.22s2.88 8 4.49 12zM33.1 92.12L28.59 89a204.69 204.69 0 0 1 38.64-42.31l3.48 4.21A199.15 199.15 0 0 0 33.1 92.12zm-11.33 18.72l-4.82-2.57q.71-1.33 1.44-2.66t1.48-2.61l4.75 2.71q-.73 1.28-1.44 2.57t-1.41 2.56zM232.81 8.4c-4.34-.78-8.81-1.4-13.15-1.91s-8.84-.84-13.25-1l.24-5.49c4.53.2 9.11.56 13.61 1.06s9.05 1.16 13.51 2zm139.76 100.92q-1-1.8-2-3.59t-2.07-3.54l4.69-2.81q1.08 1.81 2.13 3.64t2.05 3.68zm-19.42-29.25a199.22 199.22 0 0 0-32.95-32.58l3.36-4.31a204.63 204.63 0 0 1 33.85 33.48zM398.35 244l-5.35-1c.81-4.13 1.5-8.34 2.06-12.51s1-8.42 1.26-12.61l5.45.37c-.29 4.31-.72 8.67-1.29 13s-1.29 8.53-2.13 12.75zM331 359.57l-3.57-4.14 1.86-1.62 1.84-1.64 3.67 4.05-1.89 1.69z" fill="#fff"/></svg>