<svg xmlns="http://www.w3.org/2000/svg" viewBox="0 0 223.35 223.35"><g style="isolation:isolate"><g style="mix-blend-mode:screen"><path d="M29.47 52.93c.47-.65 1-1.28 1.45-1.93l4.14 3.11a95.83 95.83 0 0 1 15.61-16.34l-6.77-8.2c-1.71 1.41-3.38 2.89-5 4.41l-3.56-3.8A111.67 111.67 0 0 0 9.83 65.85l9.7 4.36a101.27 101.27 0 0 1 9.94-17.28z" fill="#8fa2b3"/><path d="M57.15 26.61l1-.61 2.75 4.41a95.83 95.83 0 0 1 64.38-13.6l.74-5.15a100.76 100.76 0 0 1 24.22 6.63l-2 4.8A95.84 95.84 0 0 1 171.69 37l3.25-4c1.54 1.24 3.06 2.51 4.53 3.84l7.14-7.89A111.68 111.68 0 0 0 79 4.9l1.53 5A106.42 106.42 0 0 0 59.26 19l-2.57-4.54c-1.78 1-3.56 2.08-5.28 3.18s-3.43 2.27-5.1 3.47l6.22 8.63c1.47-1.08 3.07-2.13 4.62-3.13z" fill="#454545"/><path d="M111.68 212.72c-2.08 0-4.15-.07-6.22-.2l.32-5.19a95.82 95.82 0 0 1-36.37-9.65l-2.29 4.66a98.607 98.607 0 0 1-7.69-4.19l-5.5 9.1A111.68 111.68 0 0 0 128.75 222l-1.62-10.51a101.39 101.39 0 0 1-15.45 1.23zm101.85-55.24A111.68 111.68 0 0 0 219.06 81l-5 1.43a106.88 106.88 0 0 0-5.59-15.14l4.73-2.17a111.64 111.64 0 0 0-13.73-22.48l-4.11 3.23c-1.2-1.53-2.44-3-3.72-4.5l-8 7c1.66 1.89 3.27 3.87 4.77 5.87s2.94 4.1 4.29 6.23l4.39-2.78c.27.43.55.86.82 1.3a101.35 101.35 0 0 1 5.59 10.51l-4.73 2.17a95.84 95.84 0 0 1 5.34 65.23l5 1.38a100.91 100.91 0 0 1-3.79 11.18l-4.82-1.95a96.43 96.43 0 0 1-52.07 52.62l2 4.79c-.89.37-1.78.74-2.68 1.09-2.47.95-5 1.81-7.55 2.55l3 10.2c2.81-.83 5.61-1.78 8.35-2.82s5.45-2.21 8.1-3.47l-2.24-4.7a106 106 0 0 0 15.84-9.34l3 4.27a111.67 111.67 0 0 0 23-21.87l-4.13-3.26a106.24 106.24 0 0 0 13.56-22.26z" fill="#8fa2b3"/><path d="M52.39 187a86.734 86.734 0 0 1-4.06-3.39l-7 8c1.47 1.29 3 2.56 4.52 3.76s3.12 2.39 4.72 3.51l6.11-8.71c-1.48-1.05-2.91-2.11-4.29-3.17zM36.5 171.11c-1.56-2-3.06-4-4.45-6.11s-2.73-4.25-4-6.45l-4.5 2.52A102.29 102.29 0 0 1 18 149.48l4.77-1.93a95.66 95.66 0 0 1-1.1-68.9L11.73 75A106.83 106.83 0 0 0 8 87.65l-5.12-1.18a111.69 111.69 0 0 0 30.44 104.78l7.46-7.58a99.59 99.59 0 0 1-8.36-9.34z" fill="#454545"/></g></g></svg>