<svg xmlns="http://www.w3.org/2000/svg" viewBox="0 0 391.1 391.04"><g style="isolation:isolate"><g style="mix-blend-mode:screen"><path d="M189.27 391v-1.29a194.82 194.82 0 0 1-134.1-59.87l-.95.91A195 195 0 0 0 189.27 391zM1.59 170.53l1.33.17A196.7 196.7 0 0 1 8 145.15 192.58 192.58 0 0 1 75.38 43l-.83-1.05A195.33 195.33 0 0 0 1.59 170.53z" fill="#fff"/><path d="M47.66 321.45A194.5 194.5 0 0 1 1.3 195.68c0-4.56.16-9.18.49-13.73l-1.3-.09c-.31 4.53-.48 9.09-.48 13.7A194.76 194.76 0 0 0 46.65 322.3zM336 331.58l-.93-.9a195.93 195.93 0 0 1-134.46 59.06v1.29A194.94 194.94 0 0 0 336 331.58z" fill="#333"/><path d="M227.93 2.68A196.82 196.82 0 0 0 195.55 0 194.64 194.64 0 0 0 83.68 35.16l.77 1.11A193.53 193.53 0 0 1 227.7 4zM366 99.6l-1.19.67A193.54 193.54 0 0 1 383.1 246a192.39 192.39 0 0 1-40.4 76.4l1 .85A195.62 195.62 0 0 0 366 99.6z" fill="#fff"/><path d="M359 90.59l1.15-.74a195.79 195.79 0 0 0-121-85l-.31 1.35c2.38.54 4.79 1.15 7.17 1.79A193.74 193.74 0 0 1 359 90.59z" fill="#333"/></g></g></svg>