<svg xmlns="http://www.w3.org/2000/svg" viewBox="0 0 372.21 375.4"><path d="M194.19 2.44c-2.13-.09-4.31-.15-6.47-.17V-.01c2.19 0 4.39.08 6.55.17zm-16.19 0l-.1-2.28c2.15-.09 4.36-.15 6.55-.17v2.28c-2.13.03-4.31.08-6.45.17zm-53.79 10.47l-.76-2.15c2.06-.73 4.15-1.43 6.21-2.08l.69 2.17c-2.04.64-4.1 1.33-6.14 2.06zm-9.07 3.47l-.87-2.1c2-.82 4-1.63 6.1-2.4l.8 2.13c-2.04.76-4.07 1.56-6.03 2.37zM68.16 44.62l-1.45-1.76c1.69-1.39 3.42-2.77 5.12-4.08l1.39 1.81c-1.69 1.29-3.39 2.65-5.06 4.03zM60.83 51l-1.54-1.7c1.58-1.45 3.23-2.91 4.91-4.34l1.48 1.73C64 48.11 62.39 49.55 60.83 51zm-34.5 42.59l-2-1.16c1.11-1.89 2.26-3.77 3.42-5.59l1.92 1.22c-1.1 1.8-2.24 3.66-3.34 5.53zm-4.71 8.49l-2-1.05c1-1.91 2-3.84 3.13-5.76l2 1.12c-1.1 1.89-2.14 3.8-3.13 5.69zM3.78 153.91l-2.24-.41c.4-2.15.84-4.31 1.3-6.42l2.22.49c-.45 2.08-.89 4.21-1.28 6.34zm-1.52 9.59L0 163.2c.28-2.13.61-4.31 1-6.48l2.25.38c-.39 2.13-.71 4.29-.99 6.4zM1 218.68c-.36-2.16-.69-4.34-1-6.48l2.26-.3c.28 2.11.6 4.26 1 6.4zm1.84 9.65c-.47-2.12-.91-4.28-1.3-6.42l2.24-.41c.39 2.12.83 4.25 1.29 6.34zm19.89 51.8c-1.08-1.91-2.14-3.85-3.13-5.76l2-1.05c1 1.88 2 3.8 3.09 5.69zm5.06 8.42c-1.16-1.82-2.31-3.7-3.42-5.59l2-1.15c1.1 1.87 2.24 3.73 3.38 5.52zm36.41 41.88c-1.66-1.42-3.31-2.88-4.91-4.34l1.54-1.68c1.58 1.44 3.21 2.89 4.85 4.29zm7.63 6.19c-1.72-1.32-3.44-2.69-5.12-4.08l1.45-1.76c1.66 1.37 3.37 2.73 5.06 4zm48.54 26.9c-2-.76-4.09-1.57-6.1-2.4l.87-2.1c2 .82 4 1.61 6 2.37zm9.29 3.2c-2.06-.65-4.15-1.35-6.21-2.08l.76-2.15c2 .72 4.11 1.42 6.14 2.06zm54.81 8.68c-2.19 0-4.39-.07-6.55-.17L178 373c2.13.09 4.31.15 6.47.17zm3.27 0v-2.28c2.17 0 4.34-.07 6.47-.17l.1 2.28c-2.18.09-4.38.15-6.57.17zm54.81-8.68l-.69-2.17c2-.65 4.1-1.34 6.14-2.06l.76 2.15c-2.06.73-4.15 1.43-6.21 2.08zm9.29-3.2l-.8-2.13c2-.75 4-1.55 6-2.37l.87 2.1c-1.98.83-4.03 1.63-6.07 2.4zm48.53-26.9l-1.37-1.81c1.69-1.3 3.39-2.65 5.06-4l1.45 1.76c-1.7 1.36-3.43 2.73-5.14 4.05zm7.63-6.19l-1.48-1.73c1.64-1.4 3.28-2.84 4.85-4.29l1.54 1.68c-1.59 1.46-3.24 2.91-4.91 4.34zm36.42-41.88l-1.92-1.22c1.15-1.8 2.28-3.66 3.38-5.52l2 1.15c-1.15 1.89-2.3 3.77-3.46 5.59zm5.05-8.42l-2-1.12c1.07-1.89 2.11-3.8 3.09-5.69l2 1.05c-.95 1.91-2.01 3.85-3.09 5.76zm19.89-51.8l-2.22-.49c.46-2.09.89-4.23 1.29-6.34l2.24.41c-.4 2.09-.84 4.3-1.31 6.42zm1.87-9.65l-2.23-.38c.36-2.14.68-4.3 1-6.4l2.26.3c-.34 2.13-.66 4.31-1.03 6.48zm-1.28-55.18c-.28-2.1-.6-4.26-1-6.4l2.25-.38c.36 2.17.69 4.35 1 6.48zm-1.52-9.59c-.39-2.12-.83-4.26-1.29-6.34l2.22-.49c.47 2.11.9 4.27 1.3 6.42zm-17.85-51.83c-1-1.89-2-3.8-3.09-5.69l2-1.12a203.8 203.8 0 0 1 3.13 5.76zm-4.71-8.49c-1.09-1.86-2.23-3.71-3.38-5.52l1.92-1.22c1.16 1.83 2.31 3.71 3.42 5.59zM311.38 51c-1.56-1.43-3.19-2.87-4.85-4.29L308 45c1.68 1.43 3.33 2.89 4.91 4.34zM304 44.62a147.32 147.32 0 0 0-5.06-4l1.39-1.81c1.7 1.31 3.43 2.68 5.12 4.08zm-46.93-28.24c-2-.81-4-1.61-6-2.37l.8-2.13c2.06.77 4.11 1.57 6.1 2.4zM248 12.91c-2-.72-4.1-1.41-6.14-2.06l.69-2.17c2.06.65 4.15 1.35 6.21 2.08zm-63.04 15.5h2.28v7.23h-2.28zm-54.405 10l2.142-.78 2.473 6.794-2.143.78zm-47.715 28l1.746-1.466 4.647 5.539-1.747 1.465zm-35.258 42.619l1.14-1.975 6.26 3.615-1.14 1.975zm-18.54 52.113l.396-2.245 7.12 1.256-.396 2.245zm.01 53.095l7.12-1.257.396 2.245-7.12 1.257zm18.686 53.197l6.29-3.615 1.14 1.984-6.29 3.615zm35.102 41.56l4.648-5.538 1.746 1.466-4.648 5.537zm47.711 28.03l2.474-6.793 2.143.78-2.474 6.794zm54.409 2.726h2.28v7.23h-2.28zm52.094-8.796l2.142-.78 2.473 6.794-2.142.78zm45.918-26.034l1.747-1.465 4.647 5.538-1.746 1.466zm34.238-40.233l1.14-1.974 6.262 3.615-1.14 1.974zm18.443-49.469l.396-2.245 7.12 1.255-.396 2.245zm0-55.048l7.12-1.255.396 2.246-7.12 1.254zm-18.443-49.486l6.261-3.615 1.14 1.975-6.261 3.615zM282.992 70.51l4.647-5.538 1.747 1.465-4.647 5.539zm-45.94-26.08l2.474-6.793 2.142.78-2.474 6.793zM185.29 18.89h1.64v3.73h-1.64zm-57.68 10.437l1.541-.56 1.276 3.504-1.541.561zM76.97 58.9l1.256-1.054 2.397 2.857-1.256 1.054zM39.503 104l.82-1.421 3.23 1.865-.82 1.42zm-19.78 55.17l.285-1.615 3.673.648-.284 1.615zm-.019 57.017l3.674-.647.284 1.615-3.673.647zM39.51 271.37l3.23-1.864.82 1.42-3.231 1.865zm37.456 45.082l2.396-2.858 1.257 1.053-2.397 2.859zm50.474 28.931l1.267-3.506 1.542.557-1.268 3.506zm57.83 7.387h1.64v3.73h-1.64zm56.495-9.653l1.541-.56 1.276 3.504-1.542.561zm49.8-28.416l1.257-1.054 2.397 2.858-1.256 1.054zm37.079-43.744l.82-1.42 3.23 1.864-.82 1.42zm19.879-53.792l.285-1.615 3.673.648-.285 1.615zm.009-58.926l3.674-.648.284 1.615-3.673.648zm-19.874-53.772l3.23-1.866.82 1.42-3.23 1.866zm-37.048-43.73l2.398-2.857 1.256 1.055-2.398 2.857zm-49.797-28.433l1.277-3.504 1.54.561-1.276 3.505z" fill="#fff"/></svg>