<svg xmlns="http://www.w3.org/2000/svg" viewBox="0 0 361.66 290.42"><g fill="#fff"><path d="M180.83 0l-3.07 5.31h6.14L180.83 0zM35.62 145.21l5.31 3.07v-6.14l-5.31 3.07zm145.21 145.21l3.07-5.31h-6.14l3.07 5.31zm145.21-145.21l-5.31-3.07v6.14l5.31-3.07zM78.15 42.53l1.59 5.93 4.34-4.34-5.93-1.59zm0 205.36l5.93-1.59-4.34-4.33-1.59 5.92zm205.36 0l-1.59-5.92-4.34 4.33 5.93 1.59zm0-205.36l-5.93 1.59 4.34 4.34 1.59-5.93z"/><g style="mix-blend-mode:screen"><path d="M25.36 144.53h84.22v1.37H25.36zm226.72 0h84.22v1.37h-84.22z"/><path d="M23.75 143.6h3.23v3.23h-3.23zm27.73-3.95h2.42v2.42h-2.42zm6.51 0h2.42v2.42h-2.42zm6.51 0h2.42v2.42H64.5zm-13.02 8.7h2.42v2.42h-2.42zm6.51 0h2.42v2.42h-2.42zm6.51 0h2.42v2.42H64.5zm245.67-6.28h-2.42v-2.42h2.42zm-6.5 0h-2.42v-2.42h2.42zm-6.51 0h-2.42v-2.42h2.42zm13.01 8.71h-2.42v-2.42h2.42zm-6.5 0h-2.42v-2.42h2.42zm-6.51 0h-2.42v-2.42h2.42zm40.75-3.96h-3.23v-3.23h3.23zM7.54 145.21L0 140.86v8.7l7.54-4.35zm346.58 0l7.54-4.35v8.7l-7.54-4.35z"/></g><path d="M181.81 16.24h2.71v2.71h-2.71zm-4.67 0h2.71v2.71h-2.71zm4.67 4.61h2.71v2.71h-2.71zm-4.67 0h2.71v2.71h-2.71zm-5.509-.734l1.367-.096.384 5.487-1.367.095zm-4.263.418l1.363-.143.575 5.47-1.363.143zm-4.243.537l1.356-.19.766 5.446-1.357.19zm-4.225.687l1.349-.238.955 5.416-1.35.238zm-4.196.852l1.34-.285 1.144 5.38-1.34.285zm-4.168.983l1.33-.331 1.33 5.336-1.33.332zm-4.125 1.114l1.317-.378 1.516 5.287-1.317.378zm-4.091 1.285l1.303-.423 1.7 5.23-1.303.424zm-8.03 2.969l1.27-.513 2.06 5.1-1.27.512zm-3.933 1.689l1.252-.556 2.237 5.024-1.252.557zm-3.865 1.841l1.23-.6 2.412 4.943-1.231.6zm-3.802 1.954l1.21-.643 2.582 4.856-1.21.643zm-3.73 2.113l1.187-.685 2.75 4.763-1.186.685zm-3.658 2.222l1.162-.725 2.914 4.664-1.162.726zm-3.572 2.351l1.136-.766 3.075 4.56-1.136.766zm-3.498 2.476l1.108-.805 3.233 4.45-1.108.805zm-3.402 2.579l1.08-.843 3.386 4.334-1.08.843zm-3.311 2.73l1.05-.881 3.535 4.213-1.05.88zM98.3 51.728l1.018-.917 3.68 4.087-1.018.917zm-9.029 9.139l.917-1.018 4.087 3.68-.917 1.018zm-2.786 3.241l.88-1.049 4.214 3.535-.881 1.05zm-5.233 6.775l.805-1.109 4.45 3.233-.806 1.108zm-2.432 3.533l.766-1.136 4.56 3.076-.766 1.136zm-6.554 11.029l.643-1.21 4.856 2.582-.643 1.21zm-1.921 3.822l.6-1.231 4.944 2.41-.6 1.232zm-1.794 3.894l.558-1.251 5.024 2.237-.557 1.251zm-1.642 3.953l.513-1.27 5.1 2.06-.513 1.27zm-1.512 4.002l.468-1.287 5.169 1.881-.469 1.287zm-2.607 8.148l.377-1.317 5.287 1.516-.377 1.317zm-1.078 4.154l.331-1.33 5.337 1.331-.331 1.33zm232.647.002l5.336-1.332.332 1.33-5.336 1.332zm-1.082-3.955l5.286-1.519.379 1.317-5.287 1.519zm-2.573-7.77l5.167-1.884.47 1.287-5.168 1.884zm-1.494-3.784l5.098-2.062.514 1.27-5.099 2.062zm-1.612-3.787l5.025-2.236.557 1.252-5.026 2.235zm-1.752-3.68l4.943-2.413.6 1.231-4.942 2.413zm-1.869-3.614l4.854-2.585.644 1.21-4.855 2.584zm-4.127-7.05l4.664-2.914.726 1.162-4.665 2.914zm-2.255-3.436l4.56-3.074.766 1.136-4.56 3.074zm-2.36-3.332l4.45-3.231.806 1.109-4.452 3.23zm-2.485-3.263l4.333-3.388.843 1.08-4.333 3.387zm-2.591-3.159l4.212-3.536.881 1.05-4.212 3.535zm-2.702-3.051l4.086-3.682.918 1.018-4.086 3.682zm-2.799-2.974l3.955-3.822.952.985-3.955 3.822zm-5.923-5.673l3.68-4.088 1.018.917-3.68 4.088zm-3.085-2.631l3.537-4.212 1.05.88-3.537 4.213zm-3.206-2.571l3.388-4.333 1.079.844-3.388 4.333zm-3.28-2.442l3.234-4.449 1.108.806-3.234 4.448zm-3.362-2.328l3.075-4.56 1.136.765-3.075 4.56zm-3.462-2.224l2.915-4.664 1.162.726-2.915 4.664zm-3.486-2.051l2.75-4.762 1.187.685-2.751 4.763zm-3.59-1.973l2.582-4.856 1.21.643-2.582 4.856zm-3.664-1.831l2.411-4.943 1.231.6-2.41 4.944zm-3.704-1.705l2.237-5.025 1.251.558-2.237 5.024zm-3.768-1.58l2.06-5.1 1.27.513-2.06 5.1zm-3.827-1.441l1.88-5.17 1.287.469-1.88 5.169zm-3.891-1.309l1.702-5.23 1.303.424-1.702 5.23zm-2.995-.782l1.54-5.28 1.315.383-1.54 5.28zm-4.875-1.428l1.333-5.336 1.329.331-1.333 5.337zm-3.984-.893l1.142-5.38 1.34.285-1.142 5.38zm-8.079-1.375l.765-5.446 1.357.19-.765 5.447zm-4.047-.476l.573-5.47 1.362.142-.573 5.47zm-3.956-.782l.385-5.5 1.37.096-.385 5.5zm-51.279.003l1.71-.622 1.923 5.281-1.71.623zM93.248 52.985l1.309-1.264 3.904 4.043-1.31 1.264zm-3.073 3.122l1.264-1.31 4.043 3.905-1.264 1.309zm-8.524 9.939l1.121-1.435 4.429 3.46-1.12 1.435zM74.21 76.844l.965-1.543 4.766 2.978-.965 1.543zm-2.225 3.77l.91-1.576 4.867 2.81-.91 1.576zm-10.469 23.981l.562-1.73 5.345 1.736-.562 1.73zm-3.306 12.677l.378-1.78 5.498 1.168-.379 1.78zm236.104-12.701l5.346-1.734.562 1.73-5.346 1.735zM283.98 81.84l4.868-2.809.91 1.577-4.867 2.809zm-20.7-26.076l3.903-4.043 1.31 1.264-3.904 4.043zm-62.555-31.275l.977-5.534 1.792.316-.977 5.534zm96.29 92.298l5.497-1.17.379 1.78-5.497 1.17z"/></g></svg>