<?xml version="1.0" standalone="no"?>
<!DOCTYPE svg PUBLIC "-//W3C//DTD SVG 20010904//EN"
 "http://www.w3.org/TR/2001/REC-SVG-20010904/DTD/svg10.dtd">
<svg version="1.0" xmlns="http://www.w3.org/2000/svg"
 width="260.000000pt" height="260.000000pt" viewBox="0 0 260.000000 260.000000"
 preserveAspectRatio="xMidYMid meet">
<metadata>
Created by potrace 1.11, written by Peter Selinger 2001-2013
</metadata>
<g transform="translate(0.000000,260.000000) scale(0.100000,-0.100000)"
fill="#000000" stroke="none">
<path d="M1075 2449 c-16 -5 -57 -12 -90 -15 -33 -4 -72 -15 -87 -25 -14 -11
-32 -19 -40 -19 -7 0 -26 -11 -42 -25 -16 -14 -35 -25 -42 -25 -13 0 -69 -33
-116 -69 -14 -12 -33 -21 -41 -21 -8 0 -26 -11 -41 -25 -15 -14 -34 -25 -42
-25 -8 0 -45 -20 -83 -45 -38 -25 -73 -45 -78 -45 -6 0 -22 -11 -37 -25 -15
-14 -34 -25 -43 -25 -9 0 -24 -7 -33 -15 -8 -8 -43 -28 -75 -46 -33 -17 -71
-43 -85 -58 -39 -42 -72 -121 -66 -159 6 -40 -1 -62 -20 -62 -12 0 -14 -73
-14 -460 0 -399 2 -460 15 -460 8 0 22 -15 31 -32 9 -18 35 -49 57 -68 41 -35
170 -120 185 -120 4 -1 39 -21 77 -46 39 -24 88 -53 110 -65 22 -11 54 -28 70
-38 17 -9 53 -29 80 -44 28 -15 68 -39 90 -52 22 -13 59 -33 81 -44 23 -11 45
-24 48 -30 17 -27 256 -120 335 -130 32 -5 58 -14 66 -24 15 -21 55 -22 55 -2
0 21 68 21 76 0 5 -12 29 -15 130 -15 93 0 124 3 124 13 0 6 26 20 58 31 31
10 68 27 81 37 13 11 28 19 34 19 6 0 18 6 26 14 9 8 52 33 96 56 115 61 115
60 115 200 0 94 3 120 15 130 13 11 21 9 46 -9 45 -33 159 -91 180 -91 23 0
26 35 4 44 -24 9 -17 26 11 26 19 0 25 -4 20 -15 -3 -9 1 -18 9 -21 24 -10
160 62 211 110 26 26 51 46 56 46 4 0 8 209 8 465 0 407 -2 465 -15 465 -11 0
-15 12 -15 48 0 81 -75 202 -142 229 -21 8 -38 19 -38 25 0 5 -30 23 -67 40
-38 18 -74 40 -81 50 -7 10 -24 18 -38 18 -13 0 -34 11 -46 25 -12 14 -27 25
-34 25 -8 0 -39 18 -71 39 -32 22 -70 43 -86 47 -15 3 -32 14 -37 24 -5 10
-22 21 -37 24 -14 4 -40 18 -56 32 -16 13 -34 24 -42 24 -7 0 -18 6 -24 14 -7
8 -23 17 -37 20 -14 4 -35 16 -47 26 -11 11 -28 20 -37 20 -10 0 -29 11 -44
25 -15 14 -37 25 -49 25 -12 0 -37 9 -55 20 -20 12 -50 20 -80 20 -26 0 -74 7
-107 15 -67 16 -194 18 -240 4z m481 -297 c6 -4 13 -15 17 -24 4 -11 17 -18
31 -18 24 0 56 -23 56 -41 0 -5 13 -9 29 -9 20 0 34 -8 45 -25 10 -15 26 -25
40 -25 12 0 31 -8 40 -19 9 -10 30 -21 45 -24 20 -4 32 -15 39 -36 6 -16 23
-35 39 -43 22 -10 29 -21 31 -51 3 -32 0 -37 -17 -37 -15 0 -21 6 -21 24 0 30
-36 76 -60 76 -10 0 -31 11 -47 24 -15 13 -39 27 -53 31 -14 4 -32 13 -40 20
-8 7 -45 29 -81 49 -36 20 -74 45 -84 56 -14 16 -31 20 -82 20 -65 0 -133 -27
-199 -79 -15 -12 -35 -21 -45 -21 -10 0 -30 -11 -45 -25 -33 -30 -64 -33 -64
-5 0 18 60 61 60 43 0 -5 8 1 18 12 25 30 92 73 127 81 17 4 36 15 43 25 7 10
22 19 35 21 43 8 132 8 143 0z m-451 -217 c0 -13 -8 -21 -22 -23 -17 -3 -23 2
-23 16 0 10 3 22 7 26 13 13 38 1 38 -19z m-110 -93 c7 -20 -20 -42 -52 -42
-18 0 -23 6 -23 25 0 41 60 55 75 17z m-100 -48 c13 -5 14 -8 3 -15 -20 -13
-38 -11 -38 6 0 16 9 19 35 9z m1014 -26 c-6 -13 -18 -30 -26 -40 -13 -14 -13
-19 1 -41 17 -26 115 -97 134 -97 6 0 17 -8 24 -18 7 -10 25 -22 40 -25 15 -4
30 -16 33 -27 4 -13 15 -20 31 -20 14 0 35 -10 47 -23 12 -13 30 -26 40 -30
20 -7 23 -47 3 -47 -7 0 -24 8 -37 18 -13 10 -51 34 -84 52 -33 19 -62 37 -65
41 -3 5 -22 15 -41 23 -20 8 -41 22 -49 30 -7 9 -18 16 -25 16 -7 0 -18 7 -25
16 -8 8 -44 33 -82 55 -37 22 -68 44 -68 50 0 5 21 20 48 32 26 12 58 30 72
40 33 23 43 21 29 -5z m-1089 -35 c0 -7 -7 -13 -15 -13 -8 0 -15 6 -15 13 0 8
7 14 15 14 8 0 15 -6 15 -14z m-718 -20 c10 -9 18 -24 18 -33 0 -22 59 -76 92
-84 15 -3 29 -15 33 -26 4 -12 19 -22 42 -26 23 -4 37 -13 40 -25 4 -14 15
-19 37 -19 23 0 34 -6 41 -22 7 -16 20 -24 42 -26 21 -2 34 -10 38 -23 4 -10
15 -19 25 -19 11 0 27 -8 37 -19 10 -10 35 -24 56 -31 21 -6 41 -18 43 -25 3
-7 19 -15 35 -19 19 -3 33 -14 39 -30 6 -16 20 -27 40 -31 33 -7 39 -37 10
-43 -16 -3 -101 49 -132 81 -10 9 -25 17 -33 17 -9 0 -32 10 -53 23 -61 38
-74 45 -142 83 -36 20 -77 45 -92 55 -15 11 -31 19 -37 19 -17 0 -161 103
-191 137 -28 32 -40 80 -23 96 9 10 15 9 35 -10z m2436 -137 c3 -23 -5 -36
-43 -71 -56 -53 -103 -72 -112 -48 -4 10 0 21 11 27 35 22 94 83 101 105 10
31 39 23 43 -13z m-1018 -71 c14 -7 41 -22 60 -33 19 -10 73 -41 119 -68 46
-27 102 -59 125 -72 22 -12 44 -29 49 -37 4 -8 15 -15 23 -15 22 0 94 -39 94
-51 0 -5 -14 -18 -31 -27 -17 -9 -53 -32 -80 -49 -27 -18 -55 -33 -62 -33 -8
0 -22 -9 -32 -20 -10 -11 -22 -20 -28 -20 -5 0 -22 -11 -39 -25 -19 -16 -42
-25 -64 -25 -20 0 -45 -5 -57 -12 -12 -6 -40 -15 -62 -19 -22 -4 -58 -12 -80
-17 -83 -20 -140 -23 -160 -8 -20 15 -20 15 0 35 17 17 38 20 159 25 98 4 144
10 155 20 9 8 36 20 61 27 25 7 49 19 53 26 4 7 14 13 21 13 6 0 29 16 50 35
21 19 46 37 57 40 14 5 19 16 19 41 0 32 -2 34 -33 34 -25 0 -39 7 -55 30 -13
17 -31 30 -41 30 -10 0 -28 9 -41 20 -13 11 -29 20 -36 20 -7 0 -19 9 -26 19
-8 10 -33 24 -56 30 -23 7 -42 18 -42 25 0 13 -49 26 -102 26 -35 0 -38 27 -5
40 32 13 59 12 87 -5z m-140 -60 c0 -8 -7 -15 -15 -15 -16 0 -20 12 -8 23 11
12 23 8 23 -8z m1000 -11 c0 -9 -13 -32 -30 -51 -16 -18 -30 -38 -30 -43 0
-16 -37 -11 -44 6 -12 30 -6 47 26 76 35 31 78 38 78 12z m-1535 -226 c24 -11
35 -38 15 -38 -15 0 -60 22 -60 30 0 7 11 20 16 20 2 0 15 -5 29 -12z m105
-63 c0 -9 -9 -15 -25 -15 -16 0 -25 6 -25 15 0 9 9 15 25 15 16 0 25 -6 25
-15z m70 -45 c0 -5 -4 -10 -9 -10 -6 0 -13 5 -16 10 -3 6 1 10 9 10 9 0 16 -4
16 -10z m1308 -39 c-2 -18 -9 -26 -23 -26 -23 0 -32 30 -15 50 18 21 42 7 38
-24z m6 -227 c20 -8 20 -33 1 -58 -8 -11 -15 -30 -15 -43 0 -13 -6 -23 -14
-23 -21 0 -28 90 -9 113 18 20 16 19 37 11z m-990 -287 c1 -102 -2 -127 -13
-127 -31 0 -40 34 -41 148 l0 113 26 -3 27 -3 1 -128z"/>
</g>
</svg>
