<svg xmlns="http://www.w3.org/2000/svg" viewBox="0 0 492.08 492.079" fill="#fff"><path d="M207.183 353.821l-19.238 11.646a31.308 31.308 0 0 1-16.231 4.535c-4.692 0-9.407-1.08-13.632-3.123-9.588-4.635-16.109-13.709-17.441-24.27l-2.824-22.323-11.05 1.063-57.175 115.82a11.565 11.565 0 0 0 13.459 16.264l45.83-12.698 17.787 44.104a11.561 11.561 0 0 0 10.729 7.239c4.389 0 8.416-2.488 10.369-6.445l54.111-109.61a32.127 32.127 0 0 1-2.471-3.312l-12.223-18.89zm143.634-10.846c-1.372 10.562-7.927 19.612-17.53 24.213a31.495 31.495 0 0 1-13.533 3.074 31.306 31.306 0 0 1-16.313-4.584l-19.21-11.722-12.282 18.839a31.135 31.135 0 0 1-2.013 2.73l54.357 110.107a11.566 11.566 0 0 0 21.096-.794l17.789-44.104 45.832 12.698c1.121.312 2.269.451 3.388.416 6.256-.149 11.28-5.27 11.28-11.562 0-2.055-.534-3.984-1.475-5.658l-56.67-114.789-11.816-1.178-2.9 22.314z"/><path d="M379.215 306.05a14.32 14.32 0 0 0 13.597-18.817l-12.239-37.025 36.643-13.343a14.326 14.326 0 0 0 5.406-23.409L395.533 185.4l27.234-27.916a14.32 14.32 0 0 0-5.281-23.434l-36.572-13.534 12.433-36.963a14.323 14.323 0 0 0-14.921-18.827l-38.828 3.666-4.823-38.697a14.32 14.32 0 0 0-21.607-10.493L279.461 39.53 258.018 6.52a14.326 14.326 0 0 0-24.024 0l-21.241 32.705-33.324-20.256a14.312 14.312 0 0 0-13.652-.668 14.318 14.318 0 0 0-7.994 11.085l-4.961 38.682-38.813-3.802a14.323 14.323 0 0 0-12.589 5.321 14.314 14.314 0 0 0-2.397 13.453l12.303 37.007-36.621 13.405a14.323 14.323 0 0 0-5.363 23.418l27.137 28.008-27.186 27.961a14.333 14.333 0 0 0-3.697 13.158 14.326 14.326 0 0 0 9.021 10.268l36.598 13.471-12.373 36.984a14.323 14.323 0 0 0 14.955 18.801l38.818-3.732 4.895 38.689a14.32 14.32 0 0 0 21.627 10.456l33.359-20.196 21.188 32.741a14.331 14.331 0 0 0 12.002 6.543h.023c4.84 0 9.354-2.445 11.997-6.502l21.3-32.666 33.293 20.314a14.309 14.309 0 0 0 13.648.692 14.327 14.327 0 0 0 8.016-11.071l5.025-38.674 38.809 3.868c.47.042.947.067 1.418.067zm-48.991-139.478l-36.772 35.845 8.682 50.612a7.339 7.339 0 0 1-7.23 8.576 7.309 7.309 0 0 1-3.412-.844l-45.454-23.896-45.453 23.896a7.332 7.332 0 0 1-7.725-.559 7.333 7.333 0 0 1-2.918-7.175l8.682-50.612-36.773-35.845a7.33 7.33 0 0 1-1.855-7.519 7.33 7.33 0 0 1 5.92-4.992l50.818-7.384 22.727-46.049a7.336 7.336 0 0 1 13.156 0l22.725 46.049 50.82 7.384a7.335 7.335 0 0 1 4.062 12.513z"/></svg>