<svg xmlns="http://www.w3.org/2000/svg" viewBox="1 -2 512 511" fill="#fff"><path d="M174.637 54.738l25.367 25.367 27.523 27.528c6 5.996 13.973 9.297 22.453 9.297h.004c8.48 0 16.453-3.305 22.457-9.301 12.38-12.383 12.383-32.535 0-44.922L219.535 9.805c-6-6-13.972-9.305-22.46-9.305-8.481 0-16.458 3.305-22.458 9.3-12.34 12.345-12.379 32.403-.12 44.802l.14.136zM108.5 120.871l16.55 16.55 36.345 36.34c.015.012.027.028.042.044l13.004 13.004.18.175c5.996 6 13.973 9.305 22.457 9.305 8.48 0 16.457-3.305 22.461-9.3 5.996-6 9.3-13.977 9.3-22.458 0-8.484-3.304-16.465-9.304-22.46l-13.097-13.102c-.051-.047-.098-.09-.141-.137l-30.317-30.32-22.546-22.543-.032-.031s0-.004-.004-.004c-6-5.996-13.968-9.301-22.449-9.301-8.484 0-16.465 3.305-22.465 9.305-12.355 12.359-12.379 32.457-.07 44.847.031.028.059.059.086.086zm-66.04 66.223l52.642 52.636c.054.055.109.11.164.16 5.996 6 13.968 9.305 22.453 9.305 8.484 0 16.465-3.304 22.465-9.3 12.367-12.375 12.379-32.5.027-44.887l-33.418-33.414-19.52-19.524c-6-6-13.98-9.304-22.46-9.304-8.485 0-16.458 3.304-22.454 9.3-6.004 6.004-9.308 13.98-9.308 22.461 0 8.485 3.304 16.461 9.304 22.457.036.04.07.075.106.11zm6.618 138.879c4.77 4.722 10.777 7.75 17.285 8.785.133.023.262.043.39.066a32 32 0 0 0 4.68.34c8.481 0 16.458-3.3 22.458-9.3 12.379-12.384 12.379-32.536-.004-44.919L54.21 241.27c-6.004-6-13.98-9.305-22.465-9.305-8.484 0-16.46 3.305-22.46 9.3-12.38 12.383-12.384 32.536.003 44.915.055.058.11.113.164.172l39.504 39.5c.04.039.082.078.121.12zm0 0"/><path d="M502.71 241.262c-10.292-10.29-26.202-12.282-38.69-4.848a14.996 14.996 0 0 1-19.5-3.652l-.887-1.14c-4.664-5.97-4.145-14.481 1.215-19.837l24.785-24.793c.082-.078.164-.156.246-.238 5.851-5.973 9.07-13.852 9.07-22.227 0-8.48-3.304-16.46-9.304-22.46s-13.977-9.301-22.457-9.301c-8.485 0-16.461 3.304-22.465 9.304-5.856 5.86-15.356 5.86-21.215 0a14.97 14.97 0 0 1-4.39-10.61c0-3.835 1.464-7.675 4.394-10.605 12.383-12.382 12.383-32.535 0-44.921-12.383-12.38-32.535-12.38-44.918 0-5.856 5.859-15.356 5.859-21.215 0a14.971 14.971 0 0 1-4.395-10.606c0-3.84 1.47-7.68 4.399-10.61 6-5.995 9.305-13.972 9.305-22.456 0-8.485-3.305-16.457-9.305-22.457-12.383-12.387-32.535-12.383-44.922 0L277.215 25.05l16.441 16.445c24.078 24.082 24.074 63.266-.004 87.344-10.183 10.187-23.293 16.375-37.437 17.781a62.007 62.007 0 0 1 2.625 17.906c0 16.5-6.426 32.008-18.094 43.676-11.668 11.664-27.18 18.086-43.672 18.086a61.957 61.957 0 0 1-17.937-2.633c-1.375 13.68-7.282 26.992-17.739 37.453-9.246 9.235-20.894 15.168-33.53 17.246 10.023 22.665 5.78 50.172-12.763 68.723-11.675 11.668-27.18 18.086-43.671 18.086h-.004c-.676 0-1.348-.027-2.02-.047L44.848 389.68c-4.817 4.82-7.262 11.605-6.88 19.11.415 8.077 3.985 15.87 10.063 21.944l66.813 66.817c12.195 12.195 32.043 12.195 44.238 0l37.879-37.88 14.476-3.886c59.227 15.817 122.922-1.25 166.223-44.547l85.184-85.187c.066-.067.133-.133.199-.203l39.668-39.668c12.383-12.38 12.383-32.532 0-44.918zM454.402 376.93l-55.527 55.527a202.324 202.324 0 0 1-66.734 44.316l20.777 20.778c12.195 12.195 32.043 12.195 44.238 0l66.817-66.813c11.992-11.988 14.863-29.375 6.273-37.965l-15.844-15.843zm0 0"/></svg>